<svg width="56" height="56" viewBox="0 0 56 56" fill="none" xmlns="http://www.w3.org/2000/svg">
<rect width="56" height="56" rx="10" fill="#D9D9D9"/>
<path d="M35.3627 22.2752C37.3716 22.2752 39.0002 20.6466 39.0002 18.6376C39.0002 16.6286 37.3716 15 35.3627 15C33.3536 15 31.7251 16.6286 31.7251 18.6376C31.7251 20.6466 33.3536 22.2752 35.3627 22.2752Z" stroke="#292D32" stroke-width="7.24559" stroke-miterlimit="10" stroke-linecap="round" stroke-linejoin="round"/>
<path opacity="0.4" d="M18.9784 22.2752C20.9874 22.2752 22.616 20.6466 22.616 18.6376C22.616 16.6286 20.9874 15 18.9784 15C16.9694 15 15.3408 16.6286 15.3408 18.6376C15.3408 20.6466 16.9694 22.2752 18.9784 22.2752Z" stroke="#292D32" stroke-width="7.24559" stroke-miterlimit="10" stroke-linecap="round" stroke-linejoin="round"/>
<path opacity="0.4" d="M35.3627 40.4627C37.3716 40.4627 39.0002 38.8342 39.0002 36.8251C39.0002 34.8162 37.3716 33.1876 35.3627 33.1876C33.3536 33.1876 31.7251 34.8162 31.7251 36.8251C31.7251 38.8342 33.3536 40.4627 35.3627 40.4627Z" stroke="#292D32" stroke-width="7.24559" stroke-miterlimit="10" stroke-linecap="round" stroke-linejoin="round"/>
<path d="M18.9784 40.4627C20.9874 40.4627 22.616 38.8342 22.616 36.8251C22.616 34.8162 20.9874 33.1876 18.9784 33.1876C16.9694 33.1876 15.3408 34.8162 15.3408 36.8251C15.3408 38.8342 16.9694 40.4627 18.9784 40.4627Z" stroke="#292D32" stroke-width="7.24559" stroke-miterlimit="10" stroke-linecap="round" stroke-linejoin="round"/>
</svg>
