<svg width="14" height="14" viewBox="0 0 14 14" fill="none" xmlns="http://www.w3.org/2000/svg">
<path d="M10.7209 6.22481C10.4667 6.22481 10.2558 6.01395 10.2558 5.75969V4.51938C10.2558 2.56589 9.70389 1.26357 7.00001 1.26357C4.29614 1.26357 3.7442 2.56589 3.7442 4.51938V5.75969C3.7442 6.01395 3.53334 6.22481 3.27908 6.22481C3.02482 6.22481 2.81396 6.01395 2.81396 5.75969V4.51938C2.81396 2.72093 3.24807 0.333334 7.00001 0.333334C10.7519 0.333334 11.1861 2.72093 11.1861 4.51938V5.75969C11.1861 6.01395 10.9752 6.22481 10.7209 6.22481Z" fill="#B5B5B5"/>
<path d="M6.99988 11.4961C5.8898 11.4961 4.98438 10.5907 4.98438 9.48062C4.98438 8.37054 5.8898 7.46512 6.99988 7.46512C8.10996 7.46512 9.01538 8.37054 9.01538 9.48062C9.01538 10.5907 8.10996 11.4961 6.99988 11.4961ZM6.99988 8.39535C6.40453 8.39535 5.91461 8.88527 5.91461 9.48062C5.91461 10.076 6.40453 10.5659 6.99988 10.5659C7.59523 10.5659 8.08515 10.076 8.08515 9.48062C8.08515 8.88527 7.59523 8.39535 6.99988 8.39535Z" fill="#B5B5B5"/>
<path d="M10.1009 13.6667H3.89939C1.1645 13.6667 0.333496 12.8357 0.333496 10.1008V8.86046C0.333496 6.12558 1.1645 5.29457 3.89939 5.29457H10.1009C12.8358 5.29457 13.6668 6.12558 13.6668 8.86046V10.1008C13.6668 12.8357 12.8358 13.6667 10.1009 13.6667ZM3.89939 6.2248C1.67923 6.2248 1.26373 6.64651 1.26373 8.86046V10.1008C1.26373 12.3147 1.67923 12.7364 3.89939 12.7364H10.1009C12.3211 12.7364 12.7366 12.3147 12.7366 10.1008V8.86046C12.7366 6.64651 12.3211 6.2248 10.1009 6.2248H3.89939Z" fill="#B5B5B5"/>
</svg>
