<svg width="23" height="27" viewBox="0 0 23 27" fill="none" xmlns="http://www.w3.org/2000/svg">
<path opacity="0.4" d="M13.9266 14.7693C13.9266 16.3881 12.6185 17.6962 10.9997 17.6962C9.38086 17.6962 8.07275 16.3881 8.07275 14.7693C8.07275 13.1505 9.38086 11.8424 10.9997 11.8424C12.6185 11.8424 13.9266 13.1505 13.9266 14.7693Z" stroke="#292D32" stroke-linecap="round" stroke-linejoin="round"/>
<path d="M10.9995 21.5309C13.8856 21.5309 16.5754 19.8304 18.4476 16.8871C19.1835 15.7343 19.1835 13.7966 18.4476 12.6439C16.5754 9.70057 13.8856 8 10.9995 8C8.11347 8 5.42364 9.70057 3.55138 12.6439C2.81556 13.7966 2.81556 15.7343 3.55138 16.8871C5.42364 19.8304 8.11347 21.5309 10.9995 21.5309Z" stroke="#292D32" stroke-linecap="round" stroke-linejoin="round"/>
<path d="M21.9965 0.999994C22.1742 0.788551 22.4895 0.761125 22.701 0.938738C22.9124 1.11635 22.9399 1.43174 22.7622 1.64319L21.9965 0.999994ZM22.7622 1.64319L1.76225 26.6432L0.996542 26L21.9965 0.999994L22.7622 1.64319Z" fill="#BEBEBE"/>
</svg>
