<svg width="18" height="18" viewBox="0 0 18 18" fill="none" xmlns="http://www.w3.org/2000/svg">
<path opacity="0.4" d="M11.9266 8.7693C11.9266 10.3881 10.6185 11.6962 8.99967 11.6962C7.38086 11.6962 6.07275 10.3881 6.07275 8.7693C6.07275 7.15049 7.38086 5.84238 8.99967 5.84238C10.6185 5.84238 11.9266 7.15049 11.9266 8.7693Z" stroke="#292D32" stroke-linecap="round" stroke-linejoin="round"/>
<path d="M8.9995 15.5309C11.8856 15.5309 14.5754 13.8304 16.4476 10.8871C17.1835 9.73429 17.1835 7.79663 16.4476 6.64385C14.5754 3.70056 11.8856 2 8.9995 2C6.11347 2 3.42364 3.70056 1.55138 6.64385C0.815556 7.79663 0.815556 9.73429 1.55138 10.8871C3.42364 13.8304 6.11347 15.5309 8.9995 15.5309Z" stroke="#292D32" stroke-linecap="round" stroke-linejoin="round"/>
<path d="M16.0752 1.2231C16.2528 1.01166 16.2254 0.696265 16.014 0.518652C15.8025 0.341039 15.4871 0.368465 15.3095 0.579908L16.0752 1.2231ZM15.3095 0.579908L1.79541 16.6681L2.56112 17.3113L16.0752 1.2231L15.3095 0.579908Z" fill="#BEBEBE"/>
</svg>
