<svg width="18" height="16" viewBox="0 0 18 16" fill="none" xmlns="http://www.w3.org/2000/svg">
<path opacity="0.4" d="M11.9271 7.7693C11.9271 9.38811 10.619 10.6962 9.00016 10.6962C7.38135 10.6962 6.07324 9.38811 6.07324 7.7693C6.07324 6.1505 7.38135 4.84238 9.00016 4.84238C10.619 4.84238 11.9271 6.1505 11.9271 7.7693Z" stroke="#292D32" stroke-linecap="round" stroke-linejoin="round"/>
<path d="M8.99998 14.5309C11.886 14.5309 14.5759 12.8304 16.4481 9.88708C17.184 8.7343 17.184 6.79663 16.4481 5.64385C14.5759 2.70057 11.886 1 8.99998 1C6.11396 1 3.42412 2.70057 1.55187 5.64385C0.816045 6.79663 0.816045 8.7343 1.55187 9.88708C3.42412 12.8304 6.11396 14.5309 8.99998 14.5309Z" stroke="#292D32" stroke-linecap="round" stroke-linejoin="round"/>
</svg>
