<svg width="18" height="26" viewBox="0 0 18 26" fill="none" xmlns="http://www.w3.org/2000/svg">
<path d="M8.99873 0C5.64929 0 2.92627 2.72302 2.92627 6.07246C2.92627 9.35798 5.49588 12.0171 8.84532 12.1321C8.94759 12.1194 9.04987 12.1194 9.12657 12.1321H9.19049H9.21606C12.4888 12.0171 15.0584 9.35798 15.0712 6.07246C15.0712 2.72302 12.3482 0 8.99873 0Z" fill="white"/>
<path d="M15.4943 15.5313C11.9275 13.1535 6.11081 13.1535 2.51847 15.5313C0.894889 16.618 0 18.0881 0 19.6606C0 21.233 0.894889 22.6904 2.50569 23.7643C4.29547 24.966 6.6477 25.5669 8.99998 25.5669C11.3523 25.5669 13.7045 24.966 15.4943 23.7643C17.1051 22.6776 18 21.2202 18 19.635C17.9872 18.0626 17.1051 16.6052 15.4943 15.5313ZM11.5568 20.6194H9.95878V22.2174C9.95878 22.7416 9.52412 23.1762 8.99998 23.1762C8.47583 23.1762 8.04117 22.7416 8.04117 22.2174V20.6194H6.44315C5.91905 20.6194 5.48439 20.1847 5.48439 19.6606C5.48439 19.1364 5.91905 18.7018 6.44315 18.7018H8.04117V17.1038C8.04117 16.5796 8.47583 16.1449 8.99998 16.1449C9.52412 16.1449 9.95878 16.5796 9.95878 17.1038V18.7018H11.5568C12.0809 18.7018 12.5156 19.1364 12.5156 19.6606C12.5156 20.1847 12.0809 20.6194 11.5568 20.6194Z" fill="white"/>
</svg>
